<svg xmlns="http://www.w3.org/2000/svg" width="178mm" height="82.97mm" viewBox="0 0 1180 550" role="img" aria-labelledby="title desc">
<title id="title">External native-path comparison</title>
<desc id="desc">Medians shown with P25--P75 intervals from reconciled authoritative evidence.</desc>
<style>text{font-family:Arial,Helvetica,sans-serif;fill:#1f2933}.title{font-size:24px;font-weight:700}.subtitle{font-size:17px}.axis{font-size:17px}.axis-title{font-size:19px;font-weight:600}.legend{font-size:18px}.note{font-size:17px}.value{font-size:17px;font-weight:600}.frame{fill:none;stroke:#334e68;stroke-width:1.2}.grid{stroke:#d9e2ec;stroke-width:0.8}.series{fill:none;stroke-width:2.4}.interval{stroke-width:2}.marker{stroke:#1f2933;stroke-width:1}</style>
<rect width="1180" height="550" fill="#ffffff"/>
<text class="title" x="100" y="42"></text>
<rect class="frame" x="172.0" y="60.0" width="888.0" height="396.0"/>
<line class="grid" x1="172.0" x2="1060.0" y1="453.89" y2="453.89"/>
<text class="axis" text-anchor="end" x="164.0" y="457.89">0.2</text>
<line class="grid" x1="172.0" x2="1060.0" y1="405.20" y2="405.20"/>
<text class="axis" text-anchor="end" x="164.0" y="409.20">0.5</text>
<line class="grid" x1="172.0" x2="1060.0" y1="368.37" y2="368.37"/>
<text class="axis" text-anchor="end" x="164.0" y="372.37">1</text>
<line class="grid" x1="172.0" x2="1060.0" y1="331.54" y2="331.54"/>
<text class="axis" text-anchor="end" x="164.0" y="335.54">2</text>
<line class="grid" x1="172.0" x2="1060.0" y1="282.85" y2="282.85"/>
<text class="axis" text-anchor="end" x="164.0" y="286.85">5</text>
<line class="grid" x1="172.0" x2="1060.0" y1="246.02" y2="246.02"/>
<text class="axis" text-anchor="end" x="164.0" y="250.02">10</text>
<line class="grid" x1="172.0" x2="1060.0" y1="209.19" y2="209.19"/>
<text class="axis" text-anchor="end" x="164.0" y="213.19">20</text>
<line class="grid" x1="172.0" x2="1060.0" y1="160.50" y2="160.50"/>
<text class="axis" text-anchor="end" x="164.0" y="164.50">50</text>
<line class="grid" x1="172.0" x2="1060.0" y1="123.67" y2="123.67"/>
<text class="axis" text-anchor="end" x="164.0" y="127.67">100</text>
<line class="grid" x1="172.0" x2="1060.0" y1="86.84" y2="86.84"/>
<text class="axis" text-anchor="end" x="164.0" y="90.84">200</text>
<line class="grid" x1="251.01" x2="251.01" y1="60.0" y2="456.0"/>
<text class="axis" text-anchor="middle" x="251.01" y="475.0">12.5k</text>
<line class="grid" x1="433.51" x2="433.51" y1="60.0" y2="456.0"/>
<text class="axis" text-anchor="middle" x="433.51" y="475.0">25k</text>
<line class="grid" x1="616.00" x2="616.00" y1="60.0" y2="456.0"/>
<text class="axis" text-anchor="middle" x="616.00" y="475.0">50k</text>
<line class="grid" x1="798.49" x2="798.49" y1="60.0" y2="456.0"/>
<text class="axis" text-anchor="middle" x="798.49" y="475.0">100k</text>
<line class="grid" x1="980.99" x2="980.99" y1="60.0" y2="456.0"/>
<text class="axis" text-anchor="middle" x="980.99" y="475.0">200k</text>
<text class="axis-title" text-anchor="middle" x="616.00" y="508">Dataset size (leaves; log scale)</text>
<text class="axis-title" text-anchor="middle" transform="translate(118,258.00) rotate(-90)">First meaningful visual time (s; log scale)</text>
<line class="interval" stroke="#1b6ca8" x1="251.01" x2="251.01" y1="253.25" y2="253.14"/>
<line class="interval" stroke="#1b6ca8" x1="247.01" x2="255.01" y1="253.25" y2="253.25"/>
<line class="interval" stroke="#1b6ca8" x1="247.01" x2="255.01" y1="253.14" y2="253.14"/>
<line class="interval" stroke="#1b6ca8" x1="433.51" x2="433.51" y1="213.82" y2="212.58"/>
<line class="interval" stroke="#1b6ca8" x1="429.51" x2="437.51" y1="213.82" y2="213.82"/>
<line class="interval" stroke="#1b6ca8" x1="429.51" x2="437.51" y1="212.58" y2="212.58"/>
<line class="interval" stroke="#1b6ca8" x1="540.26" x2="540.26" y1="188.29" y2="188.23"/>
<line class="interval" stroke="#1b6ca8" x1="536.26" x2="544.26" y1="188.29" y2="188.29"/>
<line class="interval" stroke="#1b6ca8" x1="536.26" x2="544.26" y1="188.23" y2="188.23"/>
<line class="interval" stroke="#1b6ca8" x1="616.00" x2="616.00" y1="170.87" y2="170.62"/>
<line class="interval" stroke="#1b6ca8" x1="612.00" x2="620.00" y1="170.87" y2="170.87"/>
<line class="interval" stroke="#1b6ca8" x1="612.00" x2="620.00" y1="170.62" y2="170.62"/>
<line class="interval" stroke="#1b6ca8" x1="674.75" x2="674.75" y1="154.50" y2="153.57"/>
<line class="interval" stroke="#1b6ca8" x1="670.75" x2="678.75" y1="154.50" y2="154.50"/>
<line class="interval" stroke="#1b6ca8" x1="670.75" x2="678.75" y1="153.57" y2="153.57"/>
<line class="interval" stroke="#1b6ca8" x1="722.75" x2="722.75" y1="143.11" y2="142.89"/>
<line class="interval" stroke="#1b6ca8" x1="718.75" x2="726.75" y1="143.11" y2="143.11"/>
<line class="interval" stroke="#1b6ca8" x1="718.75" x2="726.75" y1="142.89" y2="142.89"/>
<line class="interval" stroke="#1b6ca8" x1="763.34" x2="763.34" y1="134.26" y2="134.16"/>
<line class="interval" stroke="#1b6ca8" x1="759.34" x2="767.34" y1="134.26" y2="134.26"/>
<line class="interval" stroke="#1b6ca8" x1="759.34" x2="767.34" y1="134.16" y2="134.16"/>
<line class="interval" stroke="#1b6ca8" x1="798.49" x2="798.49" y1="124.22" y2="122.99"/>
<line class="interval" stroke="#1b6ca8" x1="794.49" x2="802.49" y1="124.22" y2="124.22"/>
<line class="interval" stroke="#1b6ca8" x1="794.49" x2="802.49" y1="122.99" y2="122.99"/>
<line class="interval" stroke="#1b6ca8" x1="905.25" x2="905.25" y1="96.57" y2="94.93"/>
<line class="interval" stroke="#1b6ca8" x1="901.25" x2="909.25" y1="96.57" y2="96.57"/>
<line class="interval" stroke="#1b6ca8" x1="901.25" x2="909.25" y1="94.93" y2="94.93"/>
<line class="interval" stroke="#1b6ca8" x1="980.99" x2="980.99" y1="76.14" y2="75.95"/>
<line class="interval" stroke="#1b6ca8" x1="976.99" x2="984.99" y1="76.14" y2="76.14"/>
<line class="interval" stroke="#1b6ca8" x1="976.99" x2="984.99" y1="75.95" y2="75.95"/>
<polyline class="series" stroke="#1b6ca8" stroke-dasharray="" points="251.01,253.15 433.51,213.80 540.26,188.29 616.00,170.77 674.75,154.39 722.75,143.00 763.34,134.21 798.49,123.99 905.25,96.32 980.99,76.11"/>
<circle class="marker" cx="251.01" cy="253.15" r="4.1" fill="#1b6ca8"/>
<circle class="marker" cx="433.51" cy="213.80" r="4.1" fill="#1b6ca8"/>
<circle class="marker" cx="540.26" cy="188.29" r="4.1" fill="#1b6ca8"/>
<circle class="marker" cx="616.00" cy="170.77" r="4.1" fill="#1b6ca8"/>
<circle class="marker" cx="674.75" cy="154.39" r="4.1" fill="#1b6ca8"/>
<circle class="marker" cx="722.75" cy="143.00" r="4.1" fill="#1b6ca8"/>
<circle class="marker" cx="763.34" cy="134.21" r="4.1" fill="#1b6ca8"/>
<circle class="marker" cx="798.49" cy="123.99" r="4.1" fill="#1b6ca8"/>
<circle class="marker" cx="905.25" cy="96.32" r="4.1" fill="#1b6ca8"/>
<circle class="marker" cx="980.99" cy="76.11" r="4.1" fill="#1b6ca8"/>
<line class="series" stroke="#1b6ca8" stroke-dasharray="" x1="108" x2="132" y1="54" y2="54"/>
<circle class="marker" cx="120.00" cy="54.00" r="4.1" fill="#1b6ca8"/>
<text class="legend" x="139" y="60">PhyloLens v0.2.0</text>
<line class="interval" stroke="#c45b21" x1="251.01" x2="251.01" y1="422.10" y2="421.58"/>
<line class="interval" stroke="#c45b21" x1="247.01" x2="255.01" y1="422.10" y2="422.10"/>
<line class="interval" stroke="#c45b21" x1="247.01" x2="255.01" y1="421.58" y2="421.58"/>
<line class="interval" stroke="#c45b21" x1="433.51" x2="433.51" y1="387.35" y2="387.19"/>
<line class="interval" stroke="#c45b21" x1="429.51" x2="437.51" y1="387.35" y2="387.35"/>
<line class="interval" stroke="#c45b21" x1="429.51" x2="437.51" y1="387.19" y2="387.19"/>
<line class="interval" stroke="#c45b21" x1="540.26" x2="540.26" y1="364.57" y2="364.30"/>
<line class="interval" stroke="#c45b21" x1="536.26" x2="544.26" y1="364.57" y2="364.57"/>
<line class="interval" stroke="#c45b21" x1="536.26" x2="544.26" y1="364.30" y2="364.30"/>
<line class="interval" stroke="#c45b21" x1="616.00" x2="616.00" y1="349.29" y2="349.00"/>
<line class="interval" stroke="#c45b21" x1="612.00" x2="620.00" y1="349.29" y2="349.29"/>
<line class="interval" stroke="#c45b21" x1="612.00" x2="620.00" y1="349.00" y2="349.00"/>
<line class="interval" stroke="#c45b21" x1="674.75" x2="674.75" y1="334.51" y2="334.12"/>
<line class="interval" stroke="#c45b21" x1="670.75" x2="678.75" y1="334.51" y2="334.51"/>
<line class="interval" stroke="#c45b21" x1="670.75" x2="678.75" y1="334.12" y2="334.12"/>
<line class="interval" stroke="#c45b21" x1="722.75" x2="722.75" y1="326.22" y2="325.88"/>
<line class="interval" stroke="#c45b21" x1="718.75" x2="726.75" y1="326.22" y2="326.22"/>
<line class="interval" stroke="#c45b21" x1="718.75" x2="726.75" y1="325.88" y2="325.88"/>
<line class="interval" stroke="#c45b21" x1="763.34" x2="763.34" y1="319.76" y2="319.74"/>
<line class="interval" stroke="#c45b21" x1="759.34" x2="767.34" y1="319.76" y2="319.76"/>
<line class="interval" stroke="#c45b21" x1="759.34" x2="767.34" y1="319.74" y2="319.74"/>
<line class="interval" stroke="#c45b21" x1="798.49" x2="798.49" y1="312.85" y2="312.16"/>
<line class="interval" stroke="#c45b21" x1="794.49" x2="802.49" y1="312.85" y2="312.85"/>
<line class="interval" stroke="#c45b21" x1="794.49" x2="802.49" y1="312.16" y2="312.16"/>
<line class="interval" stroke="#c45b21" x1="905.25" x2="905.25" y1="286.73" y2="286.44"/>
<line class="interval" stroke="#c45b21" x1="901.25" x2="909.25" y1="286.73" y2="286.73"/>
<line class="interval" stroke="#c45b21" x1="901.25" x2="909.25" y1="286.44" y2="286.44"/>
<line class="interval" stroke="#c45b21" x1="980.99" x2="980.99" y1="271.72" y2="271.06"/>
<line class="interval" stroke="#c45b21" x1="976.99" x2="984.99" y1="271.72" y2="271.72"/>
<line class="interval" stroke="#c45b21" x1="976.99" x2="984.99" y1="271.06" y2="271.06"/>
<polyline class="series" stroke="#c45b21" stroke-dasharray="8 4" points="251.01,421.93 433.51,387.30 540.26,364.52 616.00,349.26 674.75,334.28 722.75,326.14 763.34,319.76 798.49,312.34 905.25,286.48 980.99,271.09"/>
<rect class="marker" x="247.01" y="417.93" width="8" height="8" fill="#c45b21"/>
<rect class="marker" x="429.51" y="383.30" width="8" height="8" fill="#c45b21"/>
<rect class="marker" x="536.26" y="360.52" width="8" height="8" fill="#c45b21"/>
<rect class="marker" x="612.00" y="345.26" width="8" height="8" fill="#c45b21"/>
<rect class="marker" x="670.75" y="330.28" width="8" height="8" fill="#c45b21"/>
<rect class="marker" x="718.75" y="322.14" width="8" height="8" fill="#c45b21"/>
<rect class="marker" x="759.34" y="315.76" width="8" height="8" fill="#c45b21"/>
<rect class="marker" x="794.49" y="308.34" width="8" height="8" fill="#c45b21"/>
<rect class="marker" x="901.25" y="282.48" width="8" height="8" fill="#c45b21"/>
<rect class="marker" x="976.99" y="267.09" width="8" height="8" fill="#c45b21"/>
<line class="series" stroke="#c45b21" stroke-dasharray="8 4" x1="293" x2="317" y1="54" y2="54"/>
<rect class="marker" x="301.00" y="50.00" width="8" height="8" fill="#c45b21"/>
<text class="legend" x="324" y="60">Phylotree</text>
<line class="interval" stroke="#3d7d4a" x1="251.01" x2="251.01" y1="440.05" y2="439.65"/>
<line class="interval" stroke="#3d7d4a" x1="247.01" x2="255.01" y1="440.05" y2="440.05"/>
<line class="interval" stroke="#3d7d4a" x1="247.01" x2="255.01" y1="439.65" y2="439.65"/>
<line class="interval" stroke="#3d7d4a" x1="433.51" x2="433.51" y1="436.87" y2="436.72"/>
<line class="interval" stroke="#3d7d4a" x1="429.51" x2="437.51" y1="436.87" y2="436.87"/>
<line class="interval" stroke="#3d7d4a" x1="429.51" x2="437.51" y1="436.72" y2="436.72"/>
<line class="interval" stroke="#3d7d4a" x1="540.26" x2="540.26" y1="437.57" y2="436.75"/>
<line class="interval" stroke="#3d7d4a" x1="536.26" x2="544.26" y1="437.57" y2="437.57"/>
<line class="interval" stroke="#3d7d4a" x1="536.26" x2="544.26" y1="436.75" y2="436.75"/>
<line class="interval" stroke="#3d7d4a" x1="616.00" x2="616.00" y1="435.47" y2="435.23"/>
<line class="interval" stroke="#3d7d4a" x1="612.00" x2="620.00" y1="435.47" y2="435.47"/>
<line class="interval" stroke="#3d7d4a" x1="612.00" x2="620.00" y1="435.23" y2="435.23"/>
<line class="interval" stroke="#3d7d4a" x1="674.75" x2="674.75" y1="435.98" y2="434.43"/>
<line class="interval" stroke="#3d7d4a" x1="670.75" x2="678.75" y1="435.98" y2="435.98"/>
<line class="interval" stroke="#3d7d4a" x1="670.75" x2="678.75" y1="434.43" y2="434.43"/>
<line class="interval" stroke="#3d7d4a" x1="722.75" x2="722.75" y1="435.94" y2="435.81"/>
<line class="interval" stroke="#3d7d4a" x1="718.75" x2="726.75" y1="435.94" y2="435.94"/>
<line class="interval" stroke="#3d7d4a" x1="718.75" x2="726.75" y1="435.81" y2="435.81"/>
<line class="interval" stroke="#3d7d4a" x1="763.34" x2="763.34" y1="433.79" y2="433.02"/>
<line class="interval" stroke="#3d7d4a" x1="759.34" x2="767.34" y1="433.79" y2="433.79"/>
<line class="interval" stroke="#3d7d4a" x1="759.34" x2="767.34" y1="433.02" y2="433.02"/>
<line class="interval" stroke="#3d7d4a" x1="798.49" x2="798.49" y1="433.03" y2="432.86"/>
<line class="interval" stroke="#3d7d4a" x1="794.49" x2="802.49" y1="433.03" y2="433.03"/>
<line class="interval" stroke="#3d7d4a" x1="794.49" x2="802.49" y1="432.86" y2="432.86"/>
<line class="interval" stroke="#3d7d4a" x1="905.25" x2="905.25" y1="423.15" y2="422.30"/>
<line class="interval" stroke="#3d7d4a" x1="901.25" x2="909.25" y1="423.15" y2="423.15"/>
<line class="interval" stroke="#3d7d4a" x1="901.25" x2="909.25" y1="422.30" y2="422.30"/>
<line class="interval" stroke="#3d7d4a" x1="980.99" x2="980.99" y1="415.68" y2="414.63"/>
<line class="interval" stroke="#3d7d4a" x1="976.99" x2="984.99" y1="415.68" y2="415.68"/>
<line class="interval" stroke="#3d7d4a" x1="976.99" x2="984.99" y1="414.63" y2="414.63"/>
<polyline class="series" stroke="#3d7d4a" stroke-dasharray="2 3" points="251.01,439.71 433.51,436.74 540.26,436.76 616.00,435.24 674.75,434.89 722.75,435.82 763.34,433.10 798.49,432.88 905.25,422.91 980.99,415.17"/>
<path class="marker" d="M251.01,434.71 L256.01,439.71 L251.01,444.71 L246.01,439.71 Z" fill="#3d7d4a"/>
<path class="marker" d="M433.51,431.74 L438.51,436.74 L433.51,441.74 L428.51,436.74 Z" fill="#3d7d4a"/>
<path class="marker" d="M540.26,431.76 L545.26,436.76 L540.26,441.76 L535.26,436.76 Z" fill="#3d7d4a"/>
<path class="marker" d="M616.00,430.24 L621.00,435.24 L616.00,440.24 L611.00,435.24 Z" fill="#3d7d4a"/>
<path class="marker" d="M674.75,429.89 L679.75,434.89 L674.75,439.89 L669.75,434.89 Z" fill="#3d7d4a"/>
<path class="marker" d="M722.75,430.82 L727.75,435.82 L722.75,440.82 L717.75,435.82 Z" fill="#3d7d4a"/>
<path class="marker" d="M763.34,428.10 L768.34,433.10 L763.34,438.10 L758.34,433.10 Z" fill="#3d7d4a"/>
<path class="marker" d="M798.49,427.88 L803.49,432.88 L798.49,437.88 L793.49,432.88 Z" fill="#3d7d4a"/>
<path class="marker" d="M905.25,417.91 L910.25,422.91 L905.25,427.91 L900.25,422.91 Z" fill="#3d7d4a"/>
<path class="marker" d="M980.99,410.17 L985.99,415.17 L980.99,420.17 L975.99,415.17 Z" fill="#3d7d4a"/>
<line class="series" stroke="#3d7d4a" stroke-dasharray="2 3" x1="478" x2="502" y1="54" y2="54"/>
<path class="marker" d="M490.00,49.00 L495.00,54.00 L490.00,59.00 L485.00,54.00 Z" fill="#3d7d4a"/>
<text class="legend" x="509" y="60">Taxonium</text>
</svg>