<svg xmlns="http://www.w3.org/2000/svg" width="1180" height="610" viewBox="0 0 1180 610" role="img" aria-labelledby="title desc">
<title id="title">External native-path comparison</title>
<desc id="desc">Medians shown with P25--P75 intervals from reconciled authoritative evidence.</desc>
<style>text{font-family:Arial,Helvetica,sans-serif;fill:#1f2933}.title{font-size:22px;font-weight:700}.subtitle{font-size:13px}.axis{font-size:12px}.axis-title{font-size:14px;font-weight:600}.legend{font-size:13px}.note{font-size:12px}.frame{fill:none;stroke:#334e68;stroke-width:1}.grid{stroke:#d9e2ec;stroke-width:1}.series{fill:none;stroke-width:2.4}.interval{stroke-width:2}.marker{stroke:#1f2933;stroke-width:1}</style>
<rect width="1180" height="610" fill="#ffffff"/>
<text class="title" x="38" y="34">External comparison — native-path first meaningful visual time</text>
<text class="subtitle" x="38" y="55">Different system architectures; medians with P25–P75 intervals. Both axes use logarithmic scaling.</text>
<text class="title" x="100" y="102">Reconciled authoritative comparison</text>
<rect class="frame" x="172.0" y="120.0" width="888.0" height="396.0"/>
<line class="grid" x1="172.0" x2="1060.0" y1="513.89" y2="513.89"/>
<text class="axis" text-anchor="end" x="164.0" y="517.89">0.2</text>
<line class="grid" x1="172.0" x2="1060.0" y1="465.20" y2="465.20"/>
<text class="axis" text-anchor="end" x="164.0" y="469.20">0.5</text>
<line class="grid" x1="172.0" x2="1060.0" y1="428.37" y2="428.37"/>
<text class="axis" text-anchor="end" x="164.0" y="432.37">1</text>
<line class="grid" x1="172.0" x2="1060.0" y1="391.54" y2="391.54"/>
<text class="axis" text-anchor="end" x="164.0" y="395.54">2</text>
<line class="grid" x1="172.0" x2="1060.0" y1="342.85" y2="342.85"/>
<text class="axis" text-anchor="end" x="164.0" y="346.85">5</text>
<line class="grid" x1="172.0" x2="1060.0" y1="306.02" y2="306.02"/>
<text class="axis" text-anchor="end" x="164.0" y="310.02">10</text>
<line class="grid" x1="172.0" x2="1060.0" y1="269.19" y2="269.19"/>
<text class="axis" text-anchor="end" x="164.0" y="273.19">20</text>
<line class="grid" x1="172.0" x2="1060.0" y1="220.50" y2="220.50"/>
<text class="axis" text-anchor="end" x="164.0" y="224.50">50</text>
<line class="grid" x1="172.0" x2="1060.0" y1="183.67" y2="183.67"/>
<text class="axis" text-anchor="end" x="164.0" y="187.67">100</text>
<line class="grid" x1="172.0" x2="1060.0" y1="146.84" y2="146.84"/>
<text class="axis" text-anchor="end" x="164.0" y="150.84">200</text>
<line class="grid" x1="251.01" x2="251.01" y1="120.0" y2="516.0"/>
<text class="axis" text-anchor="middle" x="251.01" y="535.0">12.5k</text>
<line class="grid" x1="433.51" x2="433.51" y1="120.0" y2="516.0"/>
<text class="axis" text-anchor="middle" x="433.51" y="535.0">25k</text>
<line class="grid" x1="616.00" x2="616.00" y1="120.0" y2="516.0"/>
<text class="axis" text-anchor="middle" x="616.00" y="535.0">50k</text>
<line class="grid" x1="798.49" x2="798.49" y1="120.0" y2="516.0"/>
<text class="axis" text-anchor="middle" x="798.49" y="535.0">100k</text>
<line class="grid" x1="980.99" x2="980.99" y1="120.0" y2="516.0"/>
<text class="axis" text-anchor="middle" x="980.99" y="535.0">200k</text>
<text class="axis-title" text-anchor="middle" x="616.00" y="568">Dataset size (leaves; log scale)</text>
<text class="axis-title" text-anchor="middle" transform="translate(118,318.00) rotate(-90)">First meaningful visual time (s; log scale)</text>
<line class="interval" stroke="#1b6ca8" x1="251.01" x2="251.01" y1="313.25" y2="313.14"/>
<line class="interval" stroke="#1b6ca8" x1="247.01" x2="255.01" y1="313.25" y2="313.25"/>
<line class="interval" stroke="#1b6ca8" x1="247.01" x2="255.01" y1="313.14" y2="313.14"/>
<line class="interval" stroke="#1b6ca8" x1="433.51" x2="433.51" y1="273.82" y2="272.58"/>
<line class="interval" stroke="#1b6ca8" x1="429.51" x2="437.51" y1="273.82" y2="273.82"/>
<line class="interval" stroke="#1b6ca8" x1="429.51" x2="437.51" y1="272.58" y2="272.58"/>
<line class="interval" stroke="#1b6ca8" x1="540.26" x2="540.26" y1="248.29" y2="248.23"/>
<line class="interval" stroke="#1b6ca8" x1="536.26" x2="544.26" y1="248.29" y2="248.29"/>
<line class="interval" stroke="#1b6ca8" x1="536.26" x2="544.26" y1="248.23" y2="248.23"/>
<line class="interval" stroke="#1b6ca8" x1="616.00" x2="616.00" y1="230.87" y2="230.62"/>
<line class="interval" stroke="#1b6ca8" x1="612.00" x2="620.00" y1="230.87" y2="230.87"/>
<line class="interval" stroke="#1b6ca8" x1="612.00" x2="620.00" y1="230.62" y2="230.62"/>
<line class="interval" stroke="#1b6ca8" x1="674.75" x2="674.75" y1="214.50" y2="213.57"/>
<line class="interval" stroke="#1b6ca8" x1="670.75" x2="678.75" y1="214.50" y2="214.50"/>
<line class="interval" stroke="#1b6ca8" x1="670.75" x2="678.75" y1="213.57" y2="213.57"/>
<line class="interval" stroke="#1b6ca8" x1="722.75" x2="722.75" y1="203.11" y2="202.89"/>
<line class="interval" stroke="#1b6ca8" x1="718.75" x2="726.75" y1="203.11" y2="203.11"/>
<line class="interval" stroke="#1b6ca8" x1="718.75" x2="726.75" y1="202.89" y2="202.89"/>
<line class="interval" stroke="#1b6ca8" x1="763.34" x2="763.34" y1="194.26" y2="194.16"/>
<line class="interval" stroke="#1b6ca8" x1="759.34" x2="767.34" y1="194.26" y2="194.26"/>
<line class="interval" stroke="#1b6ca8" x1="759.34" x2="767.34" y1="194.16" y2="194.16"/>
<line class="interval" stroke="#1b6ca8" x1="798.49" x2="798.49" y1="184.22" y2="182.99"/>
<line class="interval" stroke="#1b6ca8" x1="794.49" x2="802.49" y1="184.22" y2="184.22"/>
<line class="interval" stroke="#1b6ca8" x1="794.49" x2="802.49" y1="182.99" y2="182.99"/>
<line class="interval" stroke="#1b6ca8" x1="905.25" x2="905.25" y1="156.57" y2="154.93"/>
<line class="interval" stroke="#1b6ca8" x1="901.25" x2="909.25" y1="156.57" y2="156.57"/>
<line class="interval" stroke="#1b6ca8" x1="901.25" x2="909.25" y1="154.93" y2="154.93"/>
<line class="interval" stroke="#1b6ca8" x1="980.99" x2="980.99" y1="136.14" y2="135.95"/>
<line class="interval" stroke="#1b6ca8" x1="976.99" x2="984.99" y1="136.14" y2="136.14"/>
<line class="interval" stroke="#1b6ca8" x1="976.99" x2="984.99" y1="135.95" y2="135.95"/>
<polyline class="series" stroke="#1b6ca8" stroke-dasharray="" points="251.01,313.15 433.51,273.80 540.26,248.29 616.00,230.77 674.75,214.39 722.75,203.00 763.34,194.21 798.49,183.99 905.25,156.32 980.99,136.11"/>
<circle class="marker" cx="251.01" cy="313.15" r="4.1" fill="#1b6ca8"/>
<circle class="marker" cx="433.51" cy="273.80" r="4.1" fill="#1b6ca8"/>
<circle class="marker" cx="540.26" cy="248.29" r="4.1" fill="#1b6ca8"/>
<circle class="marker" cx="616.00" cy="230.77" r="4.1" fill="#1b6ca8"/>
<circle class="marker" cx="674.75" cy="214.39" r="4.1" fill="#1b6ca8"/>
<circle class="marker" cx="722.75" cy="203.00" r="4.1" fill="#1b6ca8"/>
<circle class="marker" cx="763.34" cy="194.21" r="4.1" fill="#1b6ca8"/>
<circle class="marker" cx="798.49" cy="183.99" r="4.1" fill="#1b6ca8"/>
<circle class="marker" cx="905.25" cy="156.32" r="4.1" fill="#1b6ca8"/>
<circle class="marker" cx="980.99" cy="136.11" r="4.1" fill="#1b6ca8"/>
<line class="series" stroke="#1b6ca8" stroke-dasharray="" x1="108" x2="130" y1="114" y2="114"/>
<circle class="marker" cx="119.00" cy="114.00" r="4.1" fill="#1b6ca8"/>
<text class="legend" x="136" y="118">PhyloLens v0.2.0</text>
<line class="interval" stroke="#c45b21" x1="251.01" x2="251.01" y1="482.10" y2="481.58"/>
<line class="interval" stroke="#c45b21" x1="247.01" x2="255.01" y1="482.10" y2="482.10"/>
<line class="interval" stroke="#c45b21" x1="247.01" x2="255.01" y1="481.58" y2="481.58"/>
<line class="interval" stroke="#c45b21" x1="433.51" x2="433.51" y1="447.35" y2="447.19"/>
<line class="interval" stroke="#c45b21" x1="429.51" x2="437.51" y1="447.35" y2="447.35"/>
<line class="interval" stroke="#c45b21" x1="429.51" x2="437.51" y1="447.19" y2="447.19"/>
<line class="interval" stroke="#c45b21" x1="540.26" x2="540.26" y1="424.57" y2="424.30"/>
<line class="interval" stroke="#c45b21" x1="536.26" x2="544.26" y1="424.57" y2="424.57"/>
<line class="interval" stroke="#c45b21" x1="536.26" x2="544.26" y1="424.30" y2="424.30"/>
<line class="interval" stroke="#c45b21" x1="616.00" x2="616.00" y1="409.29" y2="409.00"/>
<line class="interval" stroke="#c45b21" x1="612.00" x2="620.00" y1="409.29" y2="409.29"/>
<line class="interval" stroke="#c45b21" x1="612.00" x2="620.00" y1="409.00" y2="409.00"/>
<line class="interval" stroke="#c45b21" x1="674.75" x2="674.75" y1="394.51" y2="394.12"/>
<line class="interval" stroke="#c45b21" x1="670.75" x2="678.75" y1="394.51" y2="394.51"/>
<line class="interval" stroke="#c45b21" x1="670.75" x2="678.75" y1="394.12" y2="394.12"/>
<line class="interval" stroke="#c45b21" x1="722.75" x2="722.75" y1="386.22" y2="385.88"/>
<line class="interval" stroke="#c45b21" x1="718.75" x2="726.75" y1="386.22" y2="386.22"/>
<line class="interval" stroke="#c45b21" x1="718.75" x2="726.75" y1="385.88" y2="385.88"/>
<line class="interval" stroke="#c45b21" x1="763.34" x2="763.34" y1="379.76" y2="379.74"/>
<line class="interval" stroke="#c45b21" x1="759.34" x2="767.34" y1="379.76" y2="379.76"/>
<line class="interval" stroke="#c45b21" x1="759.34" x2="767.34" y1="379.74" y2="379.74"/>
<line class="interval" stroke="#c45b21" x1="798.49" x2="798.49" y1="372.85" y2="372.16"/>
<line class="interval" stroke="#c45b21" x1="794.49" x2="802.49" y1="372.85" y2="372.85"/>
<line class="interval" stroke="#c45b21" x1="794.49" x2="802.49" y1="372.16" y2="372.16"/>
<line class="interval" stroke="#c45b21" x1="905.25" x2="905.25" y1="346.73" y2="346.44"/>
<line class="interval" stroke="#c45b21" x1="901.25" x2="909.25" y1="346.73" y2="346.73"/>
<line class="interval" stroke="#c45b21" x1="901.25" x2="909.25" y1="346.44" y2="346.44"/>
<line class="interval" stroke="#c45b21" x1="980.99" x2="980.99" y1="331.72" y2="331.06"/>
<line class="interval" stroke="#c45b21" x1="976.99" x2="984.99" y1="331.72" y2="331.72"/>
<line class="interval" stroke="#c45b21" x1="976.99" x2="984.99" y1="331.06" y2="331.06"/>
<polyline class="series" stroke="#c45b21" stroke-dasharray="8 4" points="251.01,481.93 433.51,447.30 540.26,424.52 616.00,409.26 674.75,394.28 722.75,386.14 763.34,379.76 798.49,372.34 905.25,346.48 980.99,331.09"/>
<rect class="marker" x="247.01" y="477.93" width="8" height="8" fill="#c45b21"/>
<rect class="marker" x="429.51" y="443.30" width="8" height="8" fill="#c45b21"/>
<rect class="marker" x="536.26" y="420.52" width="8" height="8" fill="#c45b21"/>
<rect class="marker" x="612.00" y="405.26" width="8" height="8" fill="#c45b21"/>
<rect class="marker" x="670.75" y="390.28" width="8" height="8" fill="#c45b21"/>
<rect class="marker" x="718.75" y="382.14" width="8" height="8" fill="#c45b21"/>
<rect class="marker" x="759.34" y="375.76" width="8" height="8" fill="#c45b21"/>
<rect class="marker" x="794.49" y="368.34" width="8" height="8" fill="#c45b21"/>
<rect class="marker" x="901.25" y="342.48" width="8" height="8" fill="#c45b21"/>
<rect class="marker" x="976.99" y="327.09" width="8" height="8" fill="#c45b21"/>
<line class="series" stroke="#c45b21" stroke-dasharray="8 4" x1="243" x2="265" y1="114" y2="114"/>
<rect class="marker" x="250.00" y="110.00" width="8" height="8" fill="#c45b21"/>
<text class="legend" x="271" y="118">Phylotree</text>
<line class="interval" stroke="#3d7d4a" x1="251.01" x2="251.01" y1="500.05" y2="499.65"/>
<line class="interval" stroke="#3d7d4a" x1="247.01" x2="255.01" y1="500.05" y2="500.05"/>
<line class="interval" stroke="#3d7d4a" x1="247.01" x2="255.01" y1="499.65" y2="499.65"/>
<line class="interval" stroke="#3d7d4a" x1="433.51" x2="433.51" y1="496.87" y2="496.72"/>
<line class="interval" stroke="#3d7d4a" x1="429.51" x2="437.51" y1="496.87" y2="496.87"/>
<line class="interval" stroke="#3d7d4a" x1="429.51" x2="437.51" y1="496.72" y2="496.72"/>
<line class="interval" stroke="#3d7d4a" x1="540.26" x2="540.26" y1="497.57" y2="496.75"/>
<line class="interval" stroke="#3d7d4a" x1="536.26" x2="544.26" y1="497.57" y2="497.57"/>
<line class="interval" stroke="#3d7d4a" x1="536.26" x2="544.26" y1="496.75" y2="496.75"/>
<line class="interval" stroke="#3d7d4a" x1="616.00" x2="616.00" y1="495.47" y2="495.23"/>
<line class="interval" stroke="#3d7d4a" x1="612.00" x2="620.00" y1="495.47" y2="495.47"/>
<line class="interval" stroke="#3d7d4a" x1="612.00" x2="620.00" y1="495.23" y2="495.23"/>
<line class="interval" stroke="#3d7d4a" x1="674.75" x2="674.75" y1="495.98" y2="494.43"/>
<line class="interval" stroke="#3d7d4a" x1="670.75" x2="678.75" y1="495.98" y2="495.98"/>
<line class="interval" stroke="#3d7d4a" x1="670.75" x2="678.75" y1="494.43" y2="494.43"/>
<line class="interval" stroke="#3d7d4a" x1="722.75" x2="722.75" y1="495.94" y2="495.81"/>
<line class="interval" stroke="#3d7d4a" x1="718.75" x2="726.75" y1="495.94" y2="495.94"/>
<line class="interval" stroke="#3d7d4a" x1="718.75" x2="726.75" y1="495.81" y2="495.81"/>
<line class="interval" stroke="#3d7d4a" x1="763.34" x2="763.34" y1="493.79" y2="493.02"/>
<line class="interval" stroke="#3d7d4a" x1="759.34" x2="767.34" y1="493.79" y2="493.79"/>
<line class="interval" stroke="#3d7d4a" x1="759.34" x2="767.34" y1="493.02" y2="493.02"/>
<line class="interval" stroke="#3d7d4a" x1="798.49" x2="798.49" y1="493.03" y2="492.86"/>
<line class="interval" stroke="#3d7d4a" x1="794.49" x2="802.49" y1="493.03" y2="493.03"/>
<line class="interval" stroke="#3d7d4a" x1="794.49" x2="802.49" y1="492.86" y2="492.86"/>
<line class="interval" stroke="#3d7d4a" x1="905.25" x2="905.25" y1="483.15" y2="482.30"/>
<line class="interval" stroke="#3d7d4a" x1="901.25" x2="909.25" y1="483.15" y2="483.15"/>
<line class="interval" stroke="#3d7d4a" x1="901.25" x2="909.25" y1="482.30" y2="482.30"/>
<line class="interval" stroke="#3d7d4a" x1="980.99" x2="980.99" y1="475.68" y2="474.63"/>
<line class="interval" stroke="#3d7d4a" x1="976.99" x2="984.99" y1="475.68" y2="475.68"/>
<line class="interval" stroke="#3d7d4a" x1="976.99" x2="984.99" y1="474.63" y2="474.63"/>
<polyline class="series" stroke="#3d7d4a" stroke-dasharray="2 3" points="251.01,499.71 433.51,496.74 540.26,496.76 616.00,495.24 674.75,494.89 722.75,495.82 763.34,493.10 798.49,492.88 905.25,482.91 980.99,475.17"/>
<path class="marker" d="M251.01,494.71 L256.01,499.71 L251.01,504.71 L246.01,499.71 Z" fill="#3d7d4a"/>
<path class="marker" d="M433.51,491.74 L438.51,496.74 L433.51,501.74 L428.51,496.74 Z" fill="#3d7d4a"/>
<path class="marker" d="M540.26,491.76 L545.26,496.76 L540.26,501.76 L535.26,496.76 Z" fill="#3d7d4a"/>
<path class="marker" d="M616.00,490.24 L621.00,495.24 L616.00,500.24 L611.00,495.24 Z" fill="#3d7d4a"/>
<path class="marker" d="M674.75,489.89 L679.75,494.89 L674.75,499.89 L669.75,494.89 Z" fill="#3d7d4a"/>
<path class="marker" d="M722.75,490.82 L727.75,495.82 L722.75,500.82 L717.75,495.82 Z" fill="#3d7d4a"/>
<path class="marker" d="M763.34,488.10 L768.34,493.10 L763.34,498.10 L758.34,493.10 Z" fill="#3d7d4a"/>
<path class="marker" d="M798.49,487.88 L803.49,492.88 L798.49,497.88 L793.49,492.88 Z" fill="#3d7d4a"/>
<path class="marker" d="M905.25,477.91 L910.25,482.91 L905.25,487.91 L900.25,482.91 Z" fill="#3d7d4a"/>
<path class="marker" d="M980.99,470.17 L985.99,475.17 L980.99,480.17 L975.99,475.17 Z" fill="#3d7d4a"/>
<line class="series" stroke="#3d7d4a" stroke-dasharray="2 3" x1="378" x2="400" y1="114" y2="114"/>
<path class="marker" d="M389.00,109.00 L394.00,114.00 L389.00,119.00 L384.00,114.00 Z" fill="#3d7d4a"/>
<text class="legend" x="406" y="118">Taxonium</text>
</svg>